<?xml version="1.0" encoding="utf-8"?>
<!-- Generator: Adobe Illustrator 21.1.0, SVG Export Plug-In . SVG Version: 6.00 Build 0)  -->
<svg version="1.1" id="loadingLogo" xmlns="http://www.w3.org/2000/svg" xmlns:xlink="http://www.w3.org/1999/xlink" x="0px" y="0px"
	 viewBox="0 0 42 19" style="enable-background:new 0 0 42 19;" xml:space="preserve">
<style type="text/css">
	body{
	  padding: 1em;
	  background: #fff;
	  color: #777;
	  text-align: center;
	  font-family: "Gill sans", sans-serif;
	  width: 40%;
	  margin: 0 auto;
	}
	svg {

            stroke-dasharray: 0%, 150%;
            stroke-dashoffset: 0%;
            stroke: #5095c8;
            stroke-linecap: round;
            stroke-linejoin: round;
            fill: #8fb5d2;
            stroke-width:-1;
            -moz-animation: first1 6s 0s ease-in-out alternate infinite;
            -webkit-animation: first1 6s 0s ease-in-out alternate infinite;
            animation: first1 6s 0s ease-in-out alternate infinite;
 	}
  	svg .eye{
            -webkit-transform-origin:0 25%;
            -moz-transform-origin:0 25%;
            transform-origin:0 25%;
            -webkit-transform:scale(1 ,1);
            -moz-transform:scale(1 ,1);
            transform:scale(1 ,1);
            -moz-animation: eye 5s 5s linear forwards infinite;
            -webkit-animation: eye 5s 5s linear forwards infinite;
            animation: eye 5s 5s linear forwards infinite;
        }
        @-webkit-keyframes eye {
            0% {-webkit-transform:scale(1 ,1);}
            1% {-webkit-transform:scale(1 ,0.1);}
            2% {-webkit-transform:scale(1 ,1);}

            10%{-webkit-transform:scale(1 ,1);}
            11%{-webkit-transform:scale(1 ,0.1);}
            12%{-webkit-transform:scale(1 ,1);}

            17%{-webkit-transform:scale(1 ,1);}
            18%{-webkit-transform:scale(1 ,0.1);}
            19%{-webkit-transform:scale(1 ,1);}

            40%{-webkit-transform:scale(1 ,1);}
            41%{-webkit-transform:scale(1 ,0.1);}
            42%{-webkit-transform:scale(1 ,1);}

            100% {-webkit-transform:scale(1 ,1);}
        }
        @-moz-keyframes eye {
            0% {-moz-transform:scale(1 ,1);}
            1% {-moz-transform:scale(1 ,0.1);}
            2% {-moz-transform:scale(1 ,1);}

            10%{-moz-transform:scale(1 ,1);}
            11%{-moz-transform:scale(1 ,0.1);}
            12%{-moz-transform:scale(1 ,1);}

            17%{-moz-transform:scale(1 ,1);}
            18%{-moz-transform:scale(1 ,0.1);}
            19%{-moz-transform:scale(1 ,1);}

            40%{-moz-transform:scale(1 ,1);}
            41%{-moz-transform:scale(1 ,0.1);}
            42%{-moz-transform:scale(1 ,1);}

            100% {-moz-transform:scale(1 ,1);}
        }
        @keyframes eye {
            0% {transform:scale(1 ,1);}
            1% {transform:scale(1 ,0.1);}
            2% {transform:scale(1 ,1);}

            10%{transform:scale(1 ,1);}
            11%{transform:scale(1 ,0.1);}
            12%{transform:scale(1 ,1);}

            17%{transform:scale(1 ,1);}
            18%{transform:scale(1 ,0.1);}
            19%{transform:scale(1 ,1);}

            40%{transform:scale(1 ,1);}
            41%{transform:scale(1 ,0.1);}
            42%{transform:scale(1 ,1);}

            100% {transform:scale(1 ,1);}
        }
        @-webkit-keyframes first1 {
            0% {
                stroke-dasharray: 0%, 135%;
                stroke-dashoffset: 0%;
            }
            50% {
                stroke-dasharray: 135%, 135%;
                stroke-dashoffset: 0%;
                fill: transparent;
            }
            70% {
                stroke-dasharray: 135%, 135%;
                stroke-dashoffset: 0%;
                fill: #5095c8;
            }
            100% {
                stroke-dasharray: 135%, 135%;
                stroke-dashoffset: 0%;
                fill: #5095c8;
            }
        }
        @-moz-keyframes first1 {
            0% {
                stroke-dasharray: 0%, 135%;
                stroke-dashoffset: 0%;
            }
            50% {
                stroke-dasharray: 135%, 135%;
                stroke-dashoffset: 0%;
                fill: transparent;
            }
            70% {
                stroke-dasharray: 135%, 135%;
                stroke-dashoffset: 0%;
                fill: #5095c8;
            }
            100% {
                stroke-dasharray: 135%, 135%;
                stroke-dashoffset: 0%;
                fill: #5095c8;
            }
        }
        @-o-keyframes first1 {
            0% {
                stroke-dasharray: 0%, 135%;
                stroke-dashoffset: 0%;
            }
            50% {
                stroke-dasharray: 135%, 135%;
                stroke-dashoffset: 0%;
                fill: transparent;
            }
            70% {
                stroke-dasharray: 135%, 135%;
                stroke-dashoffset: 0%;
                fill: #5095c8;
            }
            100% {
                stroke-dasharray: 135%, 135%;
                stroke-dashoffset: 0%;
                fill: #5095c8;
            }
        }
        @keyframes first1 {
            0% {
                stroke-dasharray: 0%, 135%;
                stroke-dashoffset: 0%;
            }
            50% {
                stroke-dasharray: 135%, 135%;
                stroke-dashoffset: 0%;
                fill: transparent;
            }
            70% {
                stroke-dasharray: 135%, 135%;
                stroke-dashoffset: 0%;
                fill: #5095c8;
            }
            100% {
                stroke-dasharray: 135%, 135%;
                stroke-dashoffset: 0%;
                fill: #5095c8;
            }
        }
</style>
<g>
	<path class="st0" d="M12.3,4.9v2.8c0,0.5,0.4,0.8,0.8,0.8c0.5,0,0.8-0.4,0.8-0.8V4.9c0-1.4,1.1-2.5,2.5-2.5c1.4,0,2.5,1.1,2.5,2.5
		V10c0,0.5,0.4,0.8,0.8,0.8c0.5,0,0.8-0.4,0.8-0.8V4.9c0-2.3-1.9-4.2-4.2-4.2C14.2,0.7,12.3,2.6,12.3,4.9z"/>
</g>
<g>
	<path class="st0" d="M19,4.9V10c0,0.5,0.4,0.8,0.8,0.8c0.5,0,0.8-0.4,0.8-0.8V4.9c0-1.4,1.1-2.5,2.5-2.5s2.5,1.1,2.5,2.5v2.8
		c0,0.5,0.4,0.8,0.8,0.8c0.5,0,0.8-0.4,0.8-0.8V4.9c0-2.3-1.9-4.2-4.2-4.2C20.9,0.7,19,2.6,19,4.9z"/>
</g>
<path class="eye" d="M16.5,3.6c-0.9,0-1.6,1-1.6,2.2C14.9,7,15.6,8,16.5,8c0.9,0,1.6-1,1.6-2.2C18.1,4.6,17.4,3.6,16.5,3.6z
	 M17.2,5.7c-0.3,0-0.6-0.3-0.6-0.6c0-0.3,0.3-0.6,0.6-0.6c0.3,0,0.6,0.3,0.6,0.6C17.8,5.5,17.5,5.7,17.2,5.7z"/>
<path class="eye" d="M23.2,3.6c-0.9,0-1.6,1-1.6,2.2C21.5,7,22.3,8,23.2,8c0.9,0,1.6-1,1.6-2.2C24.8,4.6,24,3.6,23.2,3.6z M23.8,5.7
	c-0.3,0-0.6-0.3-0.6-0.6c0-0.3,0.3-0.6,0.6-0.6c0.3,0,0.6,0.3,0.6,0.6C24.4,5.5,24.1,5.7,23.8,5.7z"/>
<g>
	<path class="st0" d="M12.2,9.8c-0.3,0.4-0.2,0.9,0.2,1.2c0.1,0.1,3.6,2.4,7.5,2.4c3.9,0,7.3-2.3,7.4-2.4c0.4-0.3,0.5-0.8,0.2-1.2
		c-0.3-0.4-0.8-0.5-1.2-0.2c0,0-3.1,2.1-6.5,2.1c-3.4,0-6.5-2.1-6.6-2.1C13,9.3,12.5,9.4,12.2,9.8z"/>
</g>
<g>
	<path class="st0" d="M19,12.6v4.6c0,0.5,0.4,0.8,0.8,0.8c0.5,0,0.8-0.4,0.8-0.8v-4.6c0-0.5-0.4-0.8-0.8-0.8
		C19.4,11.7,19,12.1,19,12.6z"/>
</g>
</svg>
